<svg version="1.1" xmlns="http://www.w3.org/2000/svg" xmlns:xlink="http://www.w3.org/1999/xlink" width="512" height="512" viewBox="0,0,256,256"><g fill="#ffffff" fill-rule="nonzero" stroke="none" stroke-width="1" stroke-linecap="butt" stroke-linejoin="miter" stroke-miterlimit="10" stroke-dasharray="" stroke-dashoffset="0" font-family="none" font-weight="none" font-size="none" text-anchor="none" style="mix-blend-mode: normal"><g transform="scale(10.66667,10.66667)"><g id="_01_align_center"><path d="M21,2h-3v-2h-2v2h-8v-2h-2v2h-3c-1.65685,0 -3,1.34315 -3,3v19h24v-19c0,-1.65685 -1.34315,-3 -3,-3zM2,5c0,-0.55228 0.44772,-1 1,-1h18c0.55228,0 1,0.44772 1,1v3h-20zM2,22v-12h20v12z"></path><rect x="15" y="13" width="2" height="2"></rect><rect x="11" y="13" width="2" height="2"></rect><rect x="7" y="13" width="2" height="2"></rect><rect x="15" y="17" width="2" height="2"></rect><rect x="11" y="17" width="2" height="2"></rect><rect x="7" y="17" width="2" height="2"></rect></g></g></g></svg>