<svg version="1.1" xmlns="http://www.w3.org/2000/svg" xmlns:xlink="http://www.w3.org/1999/xlink" width="512" height="512" viewBox="0,0,256,256"><g fill="#ffffff" fill-rule="nonzero" stroke="none" stroke-width="1" stroke-linecap="butt" stroke-linejoin="miter" stroke-miterlimit="10" stroke-dasharray="" stroke-dashoffset="0" font-family="none" font-weight="none" font-size="none" text-anchor="none" style="mix-blend-mode: normal"><g transform="translate(0.09333,0) scale(10.66667,10.66667)"><path d="M18.66,20.9c-0.41,-0.37 -1.05,-0.33 -1.41,0.09c-0.57,0.65 -1.39,1.02 -2.25,1.02h-10c-1.65,0 -3,-1.35 -3,-3v-14.01c0,-1.65 1.35,-3 3,-3h4.51c0.16,0 0.33,0 0.49,0.02v4.98c0,1.65 1.35,3 3,3h5.81c0.31,0 0.6,-0.14 0.79,-0.39c0.19,-0.25 0.25,-0.56 0.18,-0.86c-0.31,-1.22 -0.94,-2.33 -1.83,-3.22l-3.48,-3.48c-1.32,-1.32 -3.08,-2.05 -4.95,-2.05h-4.52c-2.76,0 -5,2.24 -5,5v14c0,2.76 2.24,5 5,5h10c1.43,0 2.8,-0.62 3.75,-1.69c0.37,-0.41 0.33,-1.05 -0.09,-1.41zM12,2.66c0.38,0.22 0.73,0.49 1.05,0.81l3.48,3.48c0.31,0.31 0.58,0.67 0.8,1.05h-4.34c-0.55,0 -1,-0.45 -1,-1v-4.34zM23.13,18.09l-1.61,1.61c-0.2,0.2 -0.45,0.29 -0.71,0.29c-0.26,0 -0.51,-0.1 -0.71,-0.29c-0.39,-0.39 -0.39,-1.02 0,-1.41l1.29,-1.29h-7.4c-0.55,0 -1,-0.45 -1,-1c0,-0.55 0.45,-1 1,-1h7.4l-1.29,-1.29c-0.39,-0.39 -0.39,-1.02 0,-1.41c0.39,-0.39 1.02,-0.39 1.41,0l1.61,1.61c1.15,1.15 1.15,3.03 0,4.19z"></path></g></g></svg>