<svg version="1.1" xmlns="http://www.w3.org/2000/svg" xmlns:xlink="http://www.w3.org/1999/xlink" width="24px" height="24px" viewBox="0,0,256,256"><g fill="#ffffff" fill-rule="nonzero" stroke="none" stroke-width="1" stroke-linecap="butt" stroke-linejoin="miter" stroke-miterlimit="10" stroke-dasharray="" stroke-dashoffset="0" font-family="none" font-weight="none" font-size="none" text-anchor="none" style="mix-blend-mode: normal"><g transform="scale(10.66667,10.66667)"><path d="M15,2.766v-1.766c0,-0.553 -0.448,-1 -1,-1c-0.552,0 -1,0.447 -1,1v1h-2v-1c0,-0.553 -0.448,-1 -1,-1c-0.552,0 -1,0.447 -1,1v1h-2v-1c0,-0.553 -0.448,-1 -1,-1c-0.552,0 -1,0.447 -1,1v1h-2v-1c0,-0.553 -0.448,-1 -1,-1c-0.552,0 -1,0.447 -1,1v1.766c-0.613,0.55 -1,1.347 -1,2.234v14c0,2.757 2.243,5 5,5h6c2.757,0 5,-2.243 5,-5v-14c0,-0.886 -0.387,-1.684 -1,-2.234zM14,19c0,1.654 -1.346,3 -3,3h-6c-1.654,0 -3,-1.346 -3,-3v-14c0,-0.552 0.449,-1 1,-1h10c0.551,0 1,0.448 1,1zM12,8c0,0.553 -0.448,1 -1,1h-6c-0.552,0 -1,-0.447 -1,-1c0,-0.553 0.448,-1 1,-1h6c0.552,0 1,0.447 1,1zM12,12c0,0.553 -0.448,1 -1,1h-6c-0.552,0 -1,-0.447 -1,-1c0,-0.553 0.448,-1 1,-1h6c0.552,0 1,0.447 1,1zM9,16c0,0.553 -0.448,1 -1,1h-3c-0.552,0 -1,-0.447 -1,-1c0,-0.553 0.448,-1 1,-1h3c0.552,0 1,0.447 1,1zM21,0c-1.654,0 -3,1.346 -3,3v16.758c0,1.054 0.427,2.084 1.172,2.828l1.121,1.121c0.195,0.195 0.451,0.293 0.707,0.293c0.256,0 0.512,-0.098 0.707,-0.293l1.121,-1.121c0.745,-0.744 1.172,-1.774 1.172,-2.828v-16.758c0,-1.654 -1.346,-3 -3,-3zM22,19.758c0,0.526 -0.213,1.042 -0.586,1.414l-0.414,0.414l-0.414,-0.414c-0.373,-0.372 -0.586,-0.888 -0.586,-1.414v-16.758c0,-0.552 0.449,-1 1,-1c0.551,0 1,0.448 1,1z"></path></g></g></svg>