<?xml version="1.0" encoding="UTF-8" standalone="no"?>
<!DOCTYPE svg PUBLIC "-//W3C//DTD SVG 1.1//EN" "http://www.w3.org/Graphics/SVG/1.1/DTD/svg11.dtd">
<svg xmlns="http://www.w3.org/2000/svg" version="1.1" viewBox="0.00 0.00 512.00 512.00">
<g stroke-width="2.00" fill="none" stroke-linecap="butt">
<path stroke="#26d0fe" vector-effect="non-scaling-stroke" d="
  M 153.21 40.01
  L 153.24 78.23
  Q 153.24 78.72 153.73 78.73
  Q 155.16 78.75 156.04 79.99"
/>
<path stroke="#13e1fe" vector-effect="non-scaling-stroke" d="
  M 101.47 79.97
  L 99.32 79.52
  Q 99.26 79.51 99.24 79.46
  Q 99.18 79.30 99.28 79.21
  Q 99.49 79.04 99.23 79.11
  Q 99.05 79.16 98.89 79.10
  A 0.21 0.20 31.7 0 1 98.81 78.77
  Q 99.24 78.30 98.87 77.75
  Q 98.88 60.00 98.87 41.72
  A 0.98 0.98 0.0 0 1 99.85 40.74
  Q 101.12 40.74 102.01 40.05"
/>
<path stroke="#37c2fe" vector-effect="non-scaling-stroke" d="
  M 269.90 6.82
  L 269.92 110.53
  Q 269.92 111.09 270.45 110.88
  L 272.11 110.21"
/>
<path stroke="#45b5fe" vector-effect="non-scaling-stroke" d="
  M 333.55 79.99
  Q 334.23 78.87 335.05 79.11
  A 0.82 0.82 0.0 0 0 336.11 78.32
  Q 336.13 59.71 336.12 40.76
  Q 336.12 40.54 336.40 40.51
  A 0.13 0.13 0.0 0 0 336.48 40.29
  Q 336.37 40.16 336.03 40.01"
/>
<path stroke="#13e1fe" vector-effect="non-scaling-stroke" d="
  M 95.96 472.01
  Q 95.86 472.28 95.86 472.51
  Q 95.87 473.12 96.48 473.12
  L 97.02 473.12
  Q 97.17 473.12 97.12 473.26
  Q 96.97 473.62 96.96 474.08
  Q 96.76 492.61 96.94 511.42
  A 0.46 0.45 64.5 0 0 97.74 511.71
  Q 98.17 511.18 98.89 512.00"
/>
<path stroke="#45b5fe" vector-effect="non-scaling-stroke" d="
  M 325.50 492.60
  Q 326.25 492.21 326.77 491.67
  Q 327.12 491.30 327.12 490.80
  L 327.12 443.73
  Q 327.12 443.11 327.69 443.34
  Q 328.01 443.48 328.25 443.24
  Q 328.36 443.13 328.35 442.97
  Q 328.31 442.68 328.11 442.73
  Q 327.83 442.79 327.87 442.51
  Q 327.89 442.29 328.14 441.99"
/>
<path stroke="#45b5fe" vector-effect="non-scaling-stroke" d="
  M 333.10 334.43
  L 333.11 286.88
  A 1.46 1.45 75.9 0 1 333.87 285.60
  Q 334.95 285.01 334.47 284.14"
/>
<path stroke="#26d0fe" vector-effect="non-scaling-stroke" d="
  M 138.60 472.03
  L 134.14 472.90
  A 0.01 0.01 0.0 0 1 134.14 472.88
  Q 134.61 472.74 134.91 472.98
  Q 135.12 473.16 135.12 473.59
  Q 135.12 492.05 135.12 510.88
  A 0.31 0.31 0.0 0 0 135.65 511.10
  Q 135.70 511.05 135.95 511.04
  A 0.20 0.20 0.0 0 1 136.16 511.27
  Q 136.10 511.67 137.01 512.00"
/>
</g>
<path fill="#1dd8fe" d="
  M 123.87 0.00
  L 126.26 0.00
  Q 140.04 2.08 143.80 13.65
  Q 145.28 18.19 145.06 25.85
  Q 144.86 33.12 145.05 39.51
  Q 145.07 39.96 145.52 39.96
  L 153.21 40.01
  L 153.24 78.23
  Q 153.24 78.72 153.73 78.73
  Q 155.16 78.75 156.04 79.99
  L 145.52 80.03
  Q 144.93 80.04 144.94 80.63
  Q 145.12 92.07 144.89 100.45
  C 144.41 118.07 123.12 126.49 110.78 113.92
  Q 105.25 108.29 105.08 100.14
  Q 104.88 90.17 105.05 80.62
  Q 105.06 80.05 104.49 80.03
  L 101.47 79.97
  L 99.32 79.52
  Q 99.26 79.51 99.24 79.46
  Q 99.18 79.30 99.28 79.21
  Q 99.49 79.04 99.23 79.11
  Q 99.05 79.16 98.89 79.10
  A 0.21 0.20 31.7 0 1 98.81 78.77
  Q 99.24 78.30 98.87 77.75
  Q 98.88 60.00 98.87 41.72
  A 0.98 0.98 0.0 0 1 99.85 40.74
  Q 101.12 40.74 102.01 40.05
  L 104.48 39.96
  Q 104.96 39.94 104.97 39.47
  Q 105.12 32.84 104.93 25.51
  Q 104.73 17.94 106.31 13.34
  Q 110.21 1.95 123.87 0.00
  Z"
/>
<path fill="#2fc8fe" d="
  M 253.86 0.00
  L 256.23 0.00
  Q 264.80 0.98 269.90 6.82
  L 269.92 110.53
  Q 269.92 111.09 270.45 110.88
  L 272.11 110.21
  Q 265.51 120.53 254.24 119.92
  C 245.64 119.45 238.24 113.86 235.87 105.63
  Q 234.87 102.14 234.96 96.29
  Q 235.08 88.16 234.98 80.51
  Q 234.98 79.99 234.46 79.99
  L 156.04 79.99
  Q 155.16 78.75 153.73 78.73
  Q 153.24 78.72 153.24 78.23
  L 153.21 40.01
  L 234.44 40.00
  Q 234.95 40.00 234.96 39.50
  Q 235.14 33.20 234.94 25.85
  Q 234.73 18.18 236.20 13.66
  Q 239.99 2.00 253.86 0.00
  Z"
/>
<path fill="#4caefe" d="
  M 384.87 0.00
  L 387.26 0.00
  Q 401.04 2.07 404.80 13.65
  Q 406.27 18.18 406.06 25.98
  Q 405.86 33.07 406.05 39.49
  Q 406.06 40.05 406.63 40.04
  Q 418.55 39.96 431.45 40.03
  C 451.60 40.15 470.08 47.02 484.99 60.30
  Q 509.84 82.42 512.00 117.36
  L 512.00 235.24
  Q 510.84 245.93 502.76 250.81
  C 491.63 257.55 478.25 252.96 473.33 240.98
  Q 471.89 237.46 471.93 227.73
  Q 472.15 172.41 471.94 120.44
  Q 471.89 107.66 465.19 97.95
  Q 453.08 80.38 431.63 80.11
  Q 420.24 79.96 406.54 80.03
  Q 406.03 80.04 406.02 80.55
  Q 405.93 88.28 406.04 96.27
  Q 406.12 102.11 405.16 105.53
  C 401.00 120.31 382.13 124.70 371.74 113.87
  Q 366.23 108.13 366.08 100.34
  Q 365.90 90.84 366.04 80.61
  Q 366.05 80.02 365.46 80.02
  L 333.55 79.99
  Q 334.23 78.87 335.05 79.11
  A 0.82 0.82 0.0 0 0 336.11 78.32
  Q 336.13 59.71 336.12 40.76
  Q 336.12 40.54 336.40 40.51
  A 0.13 0.13 0.0 0 0 336.48 40.29
  Q 336.37 40.16 336.03 40.01
  L 365.45 39.98
  Q 365.92 39.98 365.94 39.51
  Q 366.15 32.63 365.94 25.85
  Q 365.70 18.10 367.27 13.44
  Q 371.15 1.96 384.87 0.00
  Z"
/>
<path fill="#3ebbfe" d="
  M 269.90 6.82
  Q 274.90 12.55 274.94 19.26
  Q 275.01 29.28 275.04 39.50
  Q 275.04 40.00 275.54 40.00
  L 336.03 40.01
  Q 336.37 40.16 336.48 40.29
  A 0.13 0.13 0.0 0 1 336.40 40.51
  Q 336.12 40.54 336.12 40.76
  Q 336.13 59.71 336.11 78.32
  A 0.82 0.82 0.0 0 1 335.05 79.11
  Q 334.23 78.87 333.55 79.99
  L 275.32 79.98
  A 0.34 0.34 0.0 0 0 274.98 80.32
  Q 275.07 90.51 274.93 100.75
  Q 274.86 105.63 272.11 110.21
  L 270.45 110.88
  Q 269.92 111.09 269.92 110.53
  L 269.90 6.82
  Z"
/>
<path fill="#08eafe" d="
  M 102.01 40.05
  Q 101.12 40.74 99.85 40.74
  A 0.98 0.98 0.0 0 0 98.87 41.72
  Q 98.88 60.00 98.87 77.75
  Q 99.24 78.30 98.81 78.77
  A 0.21 0.20 31.7 0 0 98.89 79.10
  Q 99.05 79.16 99.23 79.11
  Q 99.49 79.04 99.28 79.21
  Q 99.18 79.30 99.24 79.46
  Q 99.26 79.51 99.32 79.52
  L 101.47 79.97
  Q 90.98 80.01 80.50 80.10
  Q 71.20 80.17 64.15 83.40
  Q 46.27 91.59 41.28 110.40
  Q 39.89 115.64 39.91 125.62
  Q 40.15 279.97 39.94 427.95
  Q 39.93 431.15 40.21 434.57
  Q 40.56 438.89 40.87 440.19
  Q 45.02 457.30 59.33 466.10
  C 65.80 470.08 73.11 471.92 80.75 471.96
  Q 88.35 472.01 95.96 472.01
  Q 95.86 472.28 95.86 472.51
  Q 95.87 473.12 96.48 473.12
  L 97.02 473.12
  Q 97.17 473.12 97.12 473.26
  Q 96.97 473.62 96.96 474.08
  Q 96.76 492.61 96.94 511.42
  A 0.46 0.45 64.5 0 0 97.74 511.71
  Q 98.17 511.18 98.89 512.00
  L 77.50 512.00
  Q 40.94 510.00 18.28 482.75
  Q 1.27 462.29 0.00 434.37
  L 0.00 117.49
  Q 2.10 82.47 27.01 60.30
  Q 34.68 53.47 43.41 48.96
  Q 60.77 39.99 81.00 39.95
  Q 91.44 39.94 102.01 40.05
  Z"
/>
<circle fill="#1dd8fe" cx="125.00" cy="210.00" r="19.92"/>
<circle fill="#2fc8fe" cx="212.00" cy="210.00" r="19.92"/>
<circle fill="#3ebbfe" cx="299.00" cy="210.00" r="19.92"/>
<circle fill="#4caefe" cx="386.00" cy="210.00" r="19.92"/>
<path fill="#4caefe" d="
  M 512.00 388.63
  L 512.00 393.49
  Q 511.31 411.93 506.35 427.36
  Q 493.53 467.24 458.23 491.38
  C 441.20 503.02 419.83 510.60 398.46 511.58
  Q 395.91 511.69 393.37 512.00
  L 388.50 512.00
  Q 385.93 511.69 383.33 511.56
  C 362.84 510.58 342.75 503.63 325.50 492.60
  Q 326.25 492.21 326.77 491.67
  Q 327.12 491.30 327.12 490.80
  L 327.12 443.73
  Q 327.12 443.11 327.69 443.34
  Q 328.01 443.48 328.25 443.24
  Q 328.36 443.13 328.35 442.97
  Q 328.31 442.68 328.11 442.73
  Q 327.83 442.79 327.87 442.51
  Q 327.89 442.29 328.14 441.99
  C 347.54 465.63 378.31 476.74 408.34 470.08
  C 448.12 461.26 475.39 424.16 471.60 383.77
  C 469.26 358.85 455.52 335.54 433.88 322.38
  Q 416.67 311.91 399.00 310.35
  Q 360.72 306.99 333.10 334.43
  L 333.11 286.88
  A 1.46 1.45 75.9 0 1 333.87 285.60
  Q 334.95 285.01 334.47 284.14
  Q 367.06 267.11 403.25 270.74
  C 451.60 275.58 492.11 309.29 506.59 355.40
  Q 511.33 370.51 512.00 388.63
  Z"
/>
<circle fill="#1dd8fe" cx="125.00" cy="297.00" r="19.92"/>
<circle fill="#2fc8fe" cx="212.00" cy="297.00" r="19.92"/>
<path fill="#3ebbfe" d="
  M 334.47 284.14
  Q 334.95 285.01 333.87 285.60
  A 1.46 1.45 75.9 0 0 333.11 286.88
  L 333.10 334.43
  C 304.49 364.11 302.11 409.59 328.14 441.99
  Q 327.89 442.29 327.87 442.51
  Q 327.83 442.79 328.11 442.73
  Q 328.31 442.68 328.35 442.97
  Q 328.36 443.13 328.25 443.24
  Q 328.01 443.48 327.69 443.34
  Q 327.12 443.11 327.12 443.73
  L 327.12 490.80
  Q 327.12 491.30 326.77 491.67
  Q 326.25 492.21 325.50 492.60
  Q 288.26 468.03 275.46 426.74
  C 266.26 397.05 268.96 364.07 283.29 336.19
  Q 300.56 302.58 334.47 284.14
  Z"
/>
<path fill="#4caefe" d="
  M 411.61 371.01
  C 420.11 370.96 427.31 370.39 433.88 376.75
  C 446.40 388.87 438.15 410.51 420.60 410.88
  Q 408.56 411.13 391.64 410.97
  Q 382.41 410.88 376.55 404.70
  C 371.82 399.71 370.89 394.11 370.93 387.30
  Q 371.07 365.43 371.04 350.27
  Q 371.03 342.13 376.70 336.16
  C 387.05 325.29 405.86 329.64 410.11 344.41
  Q 411.13 347.93 411.05 353.58
  Q 410.92 362.31 411.02 370.43
  Q 411.03 371.01 411.61 371.01
  Z"
/>
<circle fill="#1dd8fe" cx="125.00" cy="384.00" r="19.92"/>
<circle fill="#2fc8fe" cx="212.00" cy="384.00" r="19.92"/>
<path fill="#1dd8fe" d="
  M 95.96 472.01
  L 138.60 472.03
  L 134.14 472.90
  A 0.01 0.01 0.0 0 1 134.14 472.88
  Q 134.61 472.74 134.91 472.98
  Q 135.12 473.16 135.12 473.59
  Q 135.12 492.05 135.12 510.88
  A 0.31 0.31 0.0 0 0 135.65 511.10
  Q 135.70 511.05 135.95 511.04
  A 0.20 0.20 0.0 0 1 136.16 511.27
  Q 136.10 511.67 137.01 512.00
  L 98.89 512.00
  Q 98.17 511.18 97.74 511.71
  A 0.46 0.45 64.5 0 1 96.94 511.42
  Q 96.76 492.61 96.96 474.08
  Q 96.97 473.62 97.12 473.26
  Q 97.17 473.12 97.02 473.12
  L 96.48 473.12
  Q 95.87 473.12 95.86 472.51
  Q 95.86 472.28 95.96 472.01
  Z"
/>
<path fill="#2fc8fe" d="
  M 138.60 472.03
  Q 182.31 471.97 226.14 472.01
  Q 237.06 472.03 240.33 473.43
  C 252.35 478.63 256.61 492.40 249.40 503.39
  Q 244.43 510.96 234.12 512.00
  L 137.01 512.00
  Q 136.10 511.67 136.16 511.27
  A 0.20 0.20 0.0 0 0 135.95 511.04
  Q 135.70 511.05 135.65 511.10
  A 0.31 0.31 0.0 0 1 135.12 510.88
  Q 135.12 492.05 135.12 473.59
  Q 135.12 473.16 134.91 472.98
  Q 134.61 472.74 134.14 472.88
  A 0.01 0.01 0.0 0 0 134.14 472.90
  L 138.60 472.03
  Z"
/>
</svg>
