<svg version="1.1" xmlns="http://www.w3.org/2000/svg" xmlns:xlink="http://www.w3.org/1999/xlink" width="512" height="512" viewBox="0,0,256,256"><g fill="#ffffff" fill-rule="nonzero" stroke="none" stroke-width="1" stroke-linecap="butt" stroke-linejoin="miter" stroke-miterlimit="10" stroke-dasharray="" stroke-dashoffset="0" font-family="none" font-weight="none" font-size="none" text-anchor="none" style="mix-blend-mode: normal"><g transform="scale(10.66667,10.66667)"><path d="M16.707,8.707l-3.293,3.293l3.293,3.293l-1.414,1.414l-3.293,-3.293l-3.293,3.293l-1.414,-1.414l3.293,-3.293l-3.293,-3.293l1.414,-1.414l3.293,3.293l3.293,-3.293zM24,12c0,6.617 -5.383,12 -12,12c-6.617,0 -12,-5.383 -12,-12c0,-6.617 5.383,-12 12,-12c6.617,0 12,5.383 12,12zM22,12c0,-5.514 -4.486,-10 -10,-10c-5.514,0 -10,4.486 -10,10c0,5.514 4.486,10 10,10c5.514,0 10,-4.486 10,-10z"></path></g></g></svg>